<?xml version="1.0" encoding="utf-8"?>
<!-- Generator: Adobe Illustrator 22.1.0, SVG Export Plug-In . SVG Version: 6.00 Build 0)  -->
<svg version="1.1" id="Layer_1" xmlns="http://www.w3.org/2000/svg" xmlns:xlink="http://www.w3.org/1999/xlink" x="0px" y="0px"
	 width="268.2px" height="268.2px" viewBox="0 0 268.2 268.2" style="enable-background:new 0 0 268.2 268.2;" xml:space="preserve"
	>
<style type="text/css">
	.st0{fill:#080909;}
</style>
<g>
	<g>
		<path class="st0" d="M134.1,0C60.2,0,0,60.2,0,134.1C0,208,60.2,268.2,134.1,268.2c73.9,0,134.1-60.2,134.1-134.1
			C268.2,60.2,208,0,134.1,0z M134.1,253.2C68.4,253.2,15,199.8,15,134.1C15,68.4,68.4,15,134.1,15c65.7,0,119.1,53.4,119.1,119.1
			C253.2,199.8,199.8,253.2,134.1,253.2z"/>
	</g>
</g>
<g>
	<g>
		<g>
			<path class="st0" d="M166.7,201.2c-1.5,1.7-3.5,2.5-5.6,2.5c-1.8,0-3.6-0.6-5-1.9l-69.9-62.1l0,0c-0.7-0.6-1.2-1.3-1.6-2
				c-0.1-0.2-0.2-0.3-0.3-0.5c0-0.1-0.1-0.2-0.1-0.3c-0.1-0.2-0.1-0.3-0.2-0.5c0,0,0,0,0-0.1c-0.1-0.2-0.1-0.4-0.2-0.6
				c0-0.1,0-0.1,0-0.2c0-0.2-0.1-0.3-0.1-0.5c-0.1-0.6-0.1-1.3,0-1.9c0-0.2,0-0.3,0.1-0.5c0-0.1,0-0.1,0-0.2c0-0.2,0.1-0.4,0.2-0.6
				c0,0,0,0,0-0.1c0-0.2,0.1-0.4,0.2-0.5c0-0.1,0.1-0.2,0.1-0.2c0.1-0.2,0.2-0.4,0.3-0.6c0.1-0.2,0.3-0.5,0.4-0.7
				c0.2-0.2,0.3-0.4,0.5-0.6c0.2-0.2,0.4-0.4,0.6-0.6l69.9-62.1c3.1-2.8,7.8-2.5,10.6,0.6c2.8,3.1,2.5,7.8-0.6,10.6l-63.6,56.5
				l63.6,56.5C169.2,193.4,169.5,198.1,166.7,201.2z"/>
		</g>
	</g>
</g>
</svg>
