<?xml version="1.0" encoding="utf-8"?>
<!-- Generator: Adobe Illustrator 22.1.0, SVG Export Plug-In . SVG Version: 6.00 Build 0)  -->
<svg version="1.1" id="Layer_1" xmlns="http://www.w3.org/2000/svg" xmlns:xlink="http://www.w3.org/1999/xlink" x="0px" y="0px"
	 width="40.2px" height="40.2px" viewBox="0 0 40.2 40.2" style="enable-background:new 0 0 40.2 40.2;" xml:space="preserve">
<style type="text/css">
	.st0{fill:#222326;}
</style>
<path class="st0" d="M14.2,18.4h-3.4v-3.6h3c0.8,0,1.4,0.1,1.9,0.3c0.6,0.2,0.9,0.7,0.9,1.5c0,0.7-0.2,1.2-0.6,1.4
	C15.5,18.2,14.9,18.4,14.2,18.4z"/>
<path class="st0" d="M16.9,23.1c0,1-0.4,1.7-1.1,2c-0.4,0.2-0.9,0.3-1.7,0.3h-3.4v-4.3h3.5c0.7,0,1.2,0.1,1.6,0.3
	C16.6,21.7,16.9,22.2,16.9,23.1z"/>
<path class="st0" d="M29.2,18.9c-0.5-0.4-1.1-0.6-1.8-0.6c-0.8,0-1.4,0.2-1.8,0.7s-0.7,1-0.8,1.8H30C29.9,19.9,29.7,19.3,29.2,18.9z
	 M29.2,18.9c-0.5-0.4-1.1-0.6-1.8-0.6c-0.8,0-1.4,0.2-1.8,0.7s-0.7,1-0.8,1.8H30C29.9,19.9,29.7,19.3,29.2,18.9z M20.1,0.1
	C9,0.1,0,9,0,20.2c0,11.1,9,20.1,20.1,20.1c11.1,0,20.1-9,20.1-20.1C40.2,9,31.2,0.1,20.1,0.1z M24.1,12.6h6.5v1.6h-6.5V12.6z
	 M19.6,25.9c-0.3,0.5-0.7,0.9-1.2,1.3c-0.5,0.4-1.1,0.7-1.8,0.8c-0.7,0.2-1.5,0.2-2.3,0.2H7V12h7.9c2,0,3.4,0.6,4.2,1.7
	c0.5,0.7,0.7,1.5,0.7,2.5c0,1-0.3,1.8-0.8,2.4c-0.3,0.3-0.7,0.6-1.2,0.9c0.8,0.3,1.5,0.8,1.9,1.4c0.4,0.7,0.6,1.4,0.6,2.4
	C20.4,24.3,20.1,25.1,19.6,25.9z M33.2,22.8h-8.5c0,1.2,0.5,2,1.2,2.5c0.5,0.3,1,0.4,1.7,0.4c0.7,0,1.3-0.2,1.7-0.5
	c0.2-0.2,0.5-0.5,0.6-0.8H33c-0.1,0.7-0.5,1.4-1.1,2.1c-1,1.1-2.5,1.7-4.4,1.7c-1.5,0-2.9-0.5-4.1-1.4s-1.8-2.5-1.8-4.7
	c0-2,0.5-3.6,1.6-4.6c1.1-1.1,2.5-1.6,4.2-1.6c1,0,1.9,0.2,2.7,0.5c0.8,0.4,1.5,0.9,2,1.7c0.5,0.7,0.8,1.5,0.9,2.4
	C33.1,21,33.2,21.7,33.2,22.8z M27.4,18.3c-0.8,0-1.4,0.2-1.8,0.7s-0.7,1-0.8,1.8H30c-0.1-0.8-0.3-1.4-0.8-1.8
	C28.7,18.5,28.1,18.3,27.4,18.3z"/>
<g>
	<g>
	</g>
	<g>
	</g>
	<g>
	</g>
	<g>
	</g>
	<g>
	</g>
	<g>
	</g>
	<g>
	</g>
	<g>
	</g>
	<g>
	</g>
	<g>
	</g>
	<g>
	</g>
	<g>
	</g>
	<g>
	</g>
	<g>
	</g>
	<g>
	</g>
</g>
</svg>
