<?xml version="1.0" encoding="utf-8"?>
<!-- Generator: Adobe Illustrator 22.1.0, SVG Export Plug-In . SVG Version: 6.00 Build 0)  -->
<svg version="1.1" id="Layer_1" xmlns="http://www.w3.org/2000/svg" xmlns:xlink="http://www.w3.org/1999/xlink" x="0px" y="0px"
	 width="40.2px" height="40.2px" viewBox="0 0 40.2 40.2" style="enable-background:new 0 0 40.2 40.2;" xml:space="preserve">
<style type="text/css">
	.st0{fill:#222326;}
</style>
<g>
	<polygon class="st0" points="9.8,18.3 9.8,21.9 12.5,20.1 	"/>
	<polygon class="st0" points="19.1,15.7 19.1,10.7 10.7,16.3 14.4,18.8 	"/>
	<polygon class="st0" points="29.6,16.3 21.2,10.7 21.2,15.7 25.8,18.8 	"/>
	<polygon class="st0" points="10.7,23.9 19.1,29.5 19.1,24.5 14.4,21.4 	"/>
	<polygon class="st0" points="21.2,24.5 21.2,29.5 29.6,23.9 25.8,21.4 	"/>
	<polygon class="st0" points="20.1,17.6 16.3,20.1 20.1,22.7 23.9,20.1 	"/>
	<path class="st0" d="M20.1,0C9,0,0,9,0,20.1s9,20.1,20.1,20.1s20.1-9,20.1-20.1S31.2,0,20.1,0z M32.6,23.9V24l0,0v0.1
		c0,0,0,0,0,0.1v0.1c0,0,0,0,0,0.1c0,0,0,0,0,0.1l0,0c0,0,0,0,0,0.1l0,0c0,0,0,0-0.1,0.1l0,0c0,0,0,0-0.1,0.1l0,0l0,0L21,32.4
		c-0.2,0.1-0.4,0.2-0.6,0.2s-0.4-0.1-0.6-0.2L8.2,24.8l0,0l0,0c0,0,0,0-0.1-0.1l0,0c0,0,0,0-0.1-0.1l0,0c0,0,0,0,0-0.1l0,0
		c0,0,0,0,0-0.1c0,0,0,0,0-0.1v-0.1c0,0,0,0,0-0.1V24l0,0v-0.1v-7.6v-0.1l0,0v-0.1c0,0,0,0,0-0.1v-0.1c0,0,0,0,0-0.1c0,0,0,0,0-0.1
		l0,0c0,0,0,0,0-0.1l0,0c0,0,0,0,0.1-0.1l0,0c0,0,0,0,0.1-0.1l0,0l0,0l11.4-7.6c0.4-0.2,0.8-0.2,1.2,0l11.4,7.6l0,0l0,0
		c0,0,0,0,0.1,0.1l0,0c0,0,0,0,0.1,0.1l0,0c0,0,0,0,0,0.1l0,0c0,0,0,0,0,0.1c0,0,0,0,0,0.1V16c0,0,0,0,0,0.1v0.1l0,0v0.1v7.6H32.6z"
		/>
	<polygon class="st0" points="30.4,21.9 30.4,18.3 27.8,20.1 	"/>
</g>
</svg>
