<?xml version="1.0" encoding="utf-8"?>
<!-- Generator: Adobe Illustrator 22.0.1, SVG Export Plug-In . SVG Version: 6.00 Build 0)  -->
<svg version="1.1" id="Layer_1" xmlns="http://www.w3.org/2000/svg" xmlns:xlink="http://www.w3.org/1999/xlink" x="0px" y="0px"
	 viewBox="0 0 40.2 40.2" style="enable-background:new 0 0 40.2 40.2;" xml:space="preserve">
<style type="text/css">
	.st0{fill:#FFF;}
</style>
<g>
	<polygon class="st0" points="9.8,18.3 9.8,21.9 12.5,20.1 	"/>
	<polygon class="st0" points="19.1,15.7 19.1,10.7 10.7,16.3 14.4,18.8 	"/>
	<polygon class="st0" points="29.6,16.3 21.2,10.7 21.2,15.7 25.8,18.8 	"/>
	<polygon class="st0" points="10.7,23.9 19.1,29.5 19.1,24.5 14.4,21.4 	"/>
	<polygon class="st0" points="21.2,24.5 21.2,29.5 29.6,23.9 25.8,21.4 	"/>
	<polygon class="st0" points="20.1,17.6 16.3,20.1 20.1,22.7 23.9,20.1 	"/>
	<path class="st0" d="M20.1,0C9,0,0,9,0,20.1c0,11.1,9,20.1,20.1,20.1c11.1,0,20.1-9,20.1-20.1C40.2,9,31.2,0,20.1,0z M32.6,23.9
		c0,0,0,0.1,0,0.1c0,0,0,0,0,0c0,0,0,0.1,0,0.1c0,0,0,0,0,0.1c0,0,0,0.1,0,0.1c0,0,0,0,0,0.1c0,0,0,0,0,0.1c0,0,0,0,0,0
		c0,0,0,0,0,0.1c0,0,0,0,0,0c0,0,0,0-0.1,0.1c0,0,0,0,0,0c0,0,0,0-0.1,0.1c0,0,0,0,0,0c0,0,0,0,0,0l-11.4,7.6
		c-0.2,0.1-0.4,0.2-0.6,0.2c-0.2,0-0.4-0.1-0.6-0.2L8.2,24.8c0,0,0,0,0,0c0,0,0,0,0,0c0,0,0,0-0.1-0.1c0,0,0,0,0,0c0,0,0,0-0.1-0.1
		c0,0,0,0,0,0c0,0,0,0,0-0.1c0,0,0,0,0,0c0,0,0,0,0-0.1c0,0,0,0,0-0.1c0,0,0-0.1,0-0.1c0,0,0,0,0-0.1c0,0,0-0.1,0-0.1c0,0,0,0,0,0
		c0,0,0-0.1,0-0.1v-7.6c0,0,0-0.1,0-0.1c0,0,0,0,0,0c0,0,0-0.1,0-0.1c0,0,0,0,0-0.1c0,0,0-0.1,0-0.1c0,0,0,0,0-0.1c0,0,0,0,0-0.1
		c0,0,0,0,0,0c0,0,0,0,0-0.1c0,0,0,0,0,0c0,0,0,0,0.1-0.1c0,0,0,0,0,0c0,0,0,0,0.1-0.1c0,0,0,0,0,0c0,0,0,0,0,0l11.4-7.6
		c0.4-0.2,0.8-0.2,1.2,0l11.4,7.6c0,0,0,0,0,0c0,0,0,0,0,0c0,0,0,0,0.1,0.1c0,0,0,0,0,0c0,0,0,0,0.1,0.1c0,0,0,0,0,0c0,0,0,0,0,0.1
		c0,0,0,0,0,0c0,0,0,0,0,0.1c0,0,0,0,0,0.1c0,0,0,0.1,0,0.1c0,0,0,0,0,0.1c0,0,0,0.1,0,0.1c0,0,0,0,0,0c0,0,0,0.1,0,0.1V23.9z"/>
	<polygon class="st0" points="30.4,21.9 30.4,18.3 27.8,20.1 	"/>
</g>
</svg>
