<?xml version="1.0" encoding="utf-8"?>
<!-- Generator: Adobe Illustrator 22.0.1, SVG Export Plug-In . SVG Version: 6.00 Build 0)  -->
<svg version="1.1" id="Layer_1" xmlns="http://www.w3.org/2000/svg" xmlns:xlink="http://www.w3.org/1999/xlink" x="0px" y="0px"
	 viewBox="0 0 110.3 117.2" style="enable-background:new 0 0 110.3 117.2;" xml:space="preserve">
<style type="text/css">
	.st0{fill:#F3EEE4;}
	.st1{fill:#352519;}
	.st2{fill:#C38E3D;}
	.st3{fill:#2B231B;}
	.st4{fill:#DBCEC3;}
</style>
<path class="st0" d="M84,25.4c0,0.1,0,0.2,0,0.2c-0.2,13.9-18.9,25.1-42,25.1h-0.1c-2,0-4-0.1-5.9-0.3C15.8,48.7,0.2,38.2,0,25.6
	c0-0.1,0-0.2,0-0.2C0,11.4,18.8,0,42,0c20.1,0,36.9,8.5,41,20C83.7,21.7,84,23.5,84,25.4z"/>
<path class="st1" d="M77.8,30.5L77.8,30.5v56.3c0,0.2,0,0.4,0,0.5c-0.5,11.6-16.2,21-35.5,21.2c-19.8,0.2-35.9-9.2-36-21.1
	c0-0.2,0-0.3,0-0.5V30.4l0,0c0-0.1,0-0.1,0-0.2c0-11.9,16-21.6,35.8-21.6s35.8,9.7,35.8,21.6C77.8,30.3,77.8,30.4,77.8,30.5z"/>
<path class="st2" d="M77.9,30.5L77.9,30.5v56.3c0,0.2,0,0.4,0,0.5c-0.2,5.8-4.3,11.1-10.7,14.9c3.1-3.1,5-6.7,5.1-10.6
	c0-0.2,0-0.4,0-0.5V34.6c0-11.9-16-21.6-35.8-21.6c-9.8,0-18.7,2.4-25.1,6.2c6.3-6.3,17.7-10.5,30.7-10.5c19.8,0,35.8,9.7,35.8,21.6
	C77.9,30.3,77.9,30.4,77.9,30.5z"/>
<path class="st3" d="M13.2,33.7c0,0.1,0,0.1,0,0.2l0,0v57c0.1,5.7,3.8,10.8,9.7,14.5c-10-3.7-16.7-10.3-16.8-18c0-0.2,0-0.3,0-0.5
	V30.5l0,0c0-0.1,0-0.1,0-0.2c0-11.9,16-21.6,35.8-21.6c10.1,0,19.3,2.5,25.8,6.6c-5.5-2-11.9-3.2-18.7-3.2
	C29.3,12.1,13.2,21.7,13.2,33.7z"/>
<g>
	<path class="st4" d="M90.6,86.8H74.1V32.5h16.5c10.8,0,19.7,8.8,19.7,19.7v14.9C110.3,78,101.5,86.8,90.6,86.8z M83.9,77h6.7
		c5.4,0,9.8-4.4,9.8-9.8V52.3c0-5.4-4.4-9.8-9.8-9.8h-6.7V77z"/>
</g>
<path class="st0" d="M84,25.6v66.1c0,0.2,0,0.4,0,0.6c-0.4,9.5-9.4,17.7-22.6,21.9l0,0c-0.3,0.1-0.5,0.2-0.8,0.3l0,0
	c-0.1,0-0.2,0.1-0.3,0.1c-5.4,1.6-11.5,2.5-17.9,2.6c-0.1,0-0.3,0-0.4,0h-0.1c-0.4,0-0.7,0-1.1,0c-0.1,0-0.2,0-0.3,0
	c-0.5,0-1,0-1.4,0c-0.3,0-0.6,0-0.9,0c-0.7,0-1.4-0.1-2-0.1c-20.5-1.7-36.1-12-36.2-24.7c0-0.2,0-0.4,0-0.6V25.6h6.3
	c2,9.4,14.1,16.9,29.6,18.3c1.9,0.2,3.9,0.3,5.9,0.2c0.1,0,0.2,0,0.2,0c17.9-0.2,32.6-8.2,35.2-18.5H84z"/>
<path class="st4" d="M84,25.6v66.1c0,0.2,0,0.4,0,0.6c-0.4,9.5-9.4,17.7-22.6,21.9l0,0c-0.3,0.1-0.5,0.2-0.8,0.3l0,0
	c-0.1,0-0.2,0.1-0.3,0.1c-5.4,1.6-11.5,2.5-17.9,2.6c-0.1,0-0.3,0-0.4,0l0,0V50.7l0,0C65.1,50.7,83.8,39.5,84,25.6L84,25.6z"/>
</svg>
