<?xml version="1.0" encoding="utf-8"?>
<!-- Generator: Adobe Illustrator 22.1.0, SVG Export Plug-In . SVG Version: 6.00 Build 0)  -->
<svg version="1.1" id="Layer_1" xmlns="http://www.w3.org/2000/svg" xmlns:xlink="http://www.w3.org/1999/xlink" x="0px" y="0px"
	 width="39.3px" height="38.3px" viewBox="0 0 39.3 38.3" style="enable-background:new 0 0 39.3 38.3;" xml:space="preserve">
<style type="text/css">
	.st0{fill:#222326;}
</style>
<path class="st0" d="M19.7,0C8.8,0,0,8.8,0,19.7c0,8.7,5.6,16.1,13.4,18.7c1,0.2,1.3-0.4,1.3-0.9s0-1.7,0-3.3
	c-5.5,1.2-6.6-2.6-6.6-2.6C7.2,29.1,6,28.5,6,28.5c-1.8-1.2,0.1-1.2,0.1-1.2c2,0.1,3,2,3,2c1.8,3,4.6,2.1,5.7,1.6
	c0.2-1.3,0.7-2.1,1.2-2.6c-4.4-0.5-9-2.2-9-9.7c0-2.1,0.8-3.9,2-5.3c-0.2-0.5-0.9-2.5,0.2-5.2c0,0,1.7-0.5,5.4,2
	c1.6-0.4,3.2-0.7,4.9-0.7c1.7,0,3.4,0.2,4.9,0.7c3.8-2.5,5.4-2,5.4-2c1.1,2.7,0.4,4.7,0.2,5.2c1.3,1.4,2,3.1,2,5.3
	c0,7.6-4.6,9.2-9,9.7c0.7,0.6,1.3,1.8,1.3,3.6c0,2.6,0,4.7,0,5.4c0,0.5,0.4,1.1,1.4,0.9c7.8-2.6,13.4-10,13.4-18.7
	C39.3,8.8,30.5,0,19.7,0z"/>
</svg>
