<?xml version="1.0" encoding="utf-8"?>
<!-- Generator: Adobe Illustrator 22.0.1, SVG Export Plug-In . SVG Version: 6.00 Build 0)  -->
<svg version="1.1" id="Layer_1" xmlns="http://www.w3.org/2000/svg" xmlns:xlink="http://www.w3.org/1999/xlink" x="0px" y="0px"
	 viewBox="0 0 40.1 40.1" style="enable-background:new 0 0 40.1 40.1;" xml:space="preserve">
<style type="text/css">
	.st0{fill:#F4E3BF;}
</style>
<path class="st0" d="M36.1,8.1c-1.2-1.5-2.5-2.9-4-4c-3.4-2.5-7.5-4-12-4S11.4,1.5,8,4c-1.5,1.2-2.9,2.5-4,4c-2.5,3.4-4,7.5-4,12
	c0,4.5,1.5,8.6,4,12c1.2,1.5,2.5,2.9,4.1,4.1c3.4,2.5,7.5,4,12,4s8.7-1.5,12-4c1.5-1.2,2.9-2.5,4-4.1c2.5-3.4,4-7.5,4-12
	C40.1,15.6,38.6,11.4,36.1,8.1z M24.1,19.9c-2.5,0-2.9,1.9-2.9,3.9v7.6h-4.7V16h4.6v2.1h0.1c0.6-1.2,2.2-2.5,4.5-2.5
	c4.8,0,5.7,3.2,5.7,7.3v8.5h-4.7v-7.4C26.6,22.2,26.6,19.9,24.1,19.9z M11.1,13.9c-1.5,0-2.7-1.2-2.7-2.7s1.2-2.7,2.7-2.7
	c1.5,0,2.7,1.2,2.7,2.7C13.9,12.7,12.6,13.9,11.1,13.9z M13.5,16v15.4H8.7V16H13.5z"/>
</svg>
