<?xml version="1.0" encoding="utf-8"?>
<!-- Generator: Adobe Illustrator 22.0.1, SVG Export Plug-In . SVG Version: 6.00 Build 0)  -->
<svg version="1.1" id="Layer_1" xmlns="http://www.w3.org/2000/svg" xmlns:xlink="http://www.w3.org/1999/xlink" x="0px" y="0px"
	 viewBox="0 0 40.1 40.1" style="enable-background:new 0 0 40.1 40.1;" xml:space="preserve">
<style type="text/css">
	.st0{fill:#F4E3BF;}
</style>
<g>
	<g>
		<path class="st0" d="M37.1,0H3C1.3,0,0,1.3,0,2.9v34.3c0,1.6,1.3,2.9,3,2.9h34.2c1.6,0,3-1.3,3-2.9V2.9C40.1,1.3,38.8,0,37.1,0z
			 M11.9,34.2h-6V15h6V34.2z M8.9,12.4C7,12.4,5.5,10.9,5.5,9c0-1.9,1.5-3.4,3.4-3.4c1.9,0,3.4,1.5,3.4,3.4
			C12.4,10.9,10.8,12.4,8.9,12.4z M34.2,34.2h-5.9v-9.3c0-2.2,0-5.1-3.1-5.1c-3.1,0-3.6,2.4-3.6,4.9v9.5h-5.9V15h5.7v2.6h0.1
			c0.8-1.5,2.7-3.1,5.6-3.1c6,0,7.1,4,7.1,9.1V34.2z"/>
	</g>
</g>
</svg>
