<?xml version="1.0" encoding="utf-8"?>
<!-- Generator: Adobe Illustrator 22.0.1, SVG Export Plug-In . SVG Version: 6.00 Build 0)  -->
<svg version="1.1" xmlns="http://www.w3.org/2000/svg" xmlns:xlink="http://www.w3.org/1999/xlink" x="0px" y="0px"
	 viewBox="0 0 300 113.2" style="enable-background:new 0 0 300 113.2;" xml:space="preserve">
<style type="text/css">
	.st0{fill:#FFFFFF;}
	svg * {
		transition: fill 0.1s ease-in-out, opacity 0.1s ease-in-out;
	}

	#large,#medium,#small{
		opacity:0;
	}

	@media (min-width: 640px){
		#large{
			opacity:1;
		}
	}

	@media (max-width:640px){
		#medium{
			opacity:1;
		}
	}
}

</style>
<g id="small">
	<g>
		<path class="st0" d="M167,43.9v25.5c0,10.5-3.8,16.5-11.1,18.6V42.5c0-6.8-2.1-9-7.9-9h-3.6v0h0v8.4c0,0.6,0,1.3,0,1.9v25.5
			c0,0.7,0,1.3,0,1.9c0,0.9-0.1,1.8-0.2,2.6c-1,7.7-4.6,12.3-10.8,14.1c0,0,0,0-0.1,0c-0.1,0-0.1,0-0.2,0.1
			c-1.8,0.5-3.9,0.7-6.1,0.7h-6.5v-9.1h5c5.4,0,7.5-1.9,7.9-7.3c0-0.5,0-1.1,0-1.7V42.5c0-0.6,0-1.2,0-1.7V24.4h16.2
			C160.9,24.4,167,30.7,167,43.9z"/>
	</g>
</g>
<g id="medium">
	<g>
		<path class="st0" d="M168,26.8v23.5c0,9.6-3.5,15.2-10.2,17.2V25.6c0-6.2-1.9-8.3-7.3-8.3h-3.3v0h0V25c0,0.6,0,1.2,0,1.8v23.5
			c0,0.6,0,1.2,0,1.8c0,0.8-0.1,1.6-0.2,2.4c-0.9,7.1-4.3,11.3-9.9,13c0,0,0,0-0.1,0c-0.1,0-0.1,0-0.2,0.1c-1.7,0.5-3.6,0.7-5.7,0.7
			h-6v-8.4h4.6c4.9,0,7-1.7,7.3-6.7c0-0.5,0-1,0-1.6v-26c0-0.6,0-1.1,0-1.6V8.9h14.9C162.4,8.9,168,14.6,168,26.8z"/>
	</g>
	<path class="st0" d="M48,77.8h2.2v18.2c0,2.5-0.7,4.4-2.1,5.9c-1.4,1.5-3.3,2.2-5.7,2.2c-2.5,0-4.4-0.7-5.8-2c-1.4-1.3-2-3.2-2-5.5
		h2.2c0,1.9,0.5,3.3,1.5,4.2c1,0.9,2.4,1.4,4.2,1.4c1.6,0,3-0.5,4-1.6c1-1.1,1.6-2.6,1.6-4.4V77.8z"/>
	<path class="st0" d="M66.3,103.6c-0.2-0.6-0.4-1.5-0.4-2.7c-0.7,1-1.7,1.7-2.9,2.2c-1.2,0.5-2.4,0.8-3.7,0.8
		c-1.8,0-3.3-0.5-4.5-1.5c-1.1-1-1.7-2.3-1.7-3.9c0-1.9,0.8-3.4,2.3-4.4c1.6-1.1,3.7-1.6,6.5-1.6h3.9v-2.2c0-1.4-0.4-2.5-1.3-3.2
		c-0.8-0.8-2.1-1.2-3.7-1.2c-1.5,0-2.7,0.4-3.7,1.1c-1,0.8-1.5,1.7-1.5,2.7l-2.1,0c0-1.5,0.7-2.9,2.1-4c1.4-1.1,3.2-1.7,5.2-1.7
		c2.1,0,3.8,0.5,5.1,1.6c1.2,1.1,1.9,2.6,1.9,4.5v9.1c0,1.9,0.2,3.3,0.6,4.2v0.2H66.3z M59.6,102.1c1.4,0,2.7-0.3,3.8-1
		c1.1-0.7,1.9-1.6,2.4-2.8v-4.2H62c-2.1,0-3.8,0.4-5,1.2c-1.2,0.8-1.8,1.8-1.8,3.1c0,1.1,0.4,2,1.2,2.7S58.3,102.1,59.6,102.1z"/>
	<path class="st0" d="M78.9,102.2c1.5,0,2.7-0.4,3.7-1.3c1-0.8,1.5-1.9,1.6-3.2h2c-0.1,1.2-0.4,2.2-1.1,3.2c-0.7,1-1.6,1.7-2.7,2.3
		c-1.1,0.5-2.3,0.8-3.6,0.8c-2.5,0-4.5-0.9-6-2.6c-1.5-1.8-2.2-4.1-2.2-7.1v-0.6c0-1.9,0.3-3.6,1-5s1.6-2.6,2.9-3.4
		c1.2-0.8,2.7-1.2,4.3-1.2c2.1,0,3.8,0.6,5.2,1.9c1.4,1.3,2.1,2.9,2.2,5h-2c-0.1-1.5-0.6-2.7-1.6-3.6c-1-0.9-2.2-1.4-3.7-1.4
		c-1.9,0-3.4,0.7-4.5,2.1c-1.1,1.4-1.6,3.3-1.6,5.8v0.6c0,2.5,0.5,4.4,1.6,5.7C75.5,101.5,77,102.2,78.9,102.2z"/>
	<path class="st0" d="M88.3,93.7c0-1.8,0.4-3.5,1.1-5c0.7-1.5,1.7-2.6,3-3.5c1.3-0.8,2.8-1.2,4.5-1.2c2.6,0,4.6,0.9,6.2,2.7
		c1.6,1.8,2.4,4.2,2.4,7.1v0.4c0,1.9-0.4,3.5-1.1,5c-0.7,1.5-1.7,2.6-3,3.4c-1.3,0.8-2.8,1.2-4.5,1.2c-2.5,0-4.6-0.9-6.2-2.7
		c-1.6-1.8-2.4-4.2-2.4-7.1V93.7z M90.4,94.3c0,2.3,0.6,4.2,1.8,5.7c1.2,1.5,2.8,2.2,4.7,2.2c1.9,0,3.5-0.7,4.7-2.2
		c1.2-1.5,1.8-3.4,1.8-5.8v-0.4c0-1.5-0.3-2.8-0.8-4c-0.5-1.2-1.3-2.2-2.3-2.8c-1-0.7-2.1-1-3.4-1c-1.9,0-3.4,0.7-4.6,2.2
		c-1.2,1.5-1.8,3.4-1.8,5.8V94.3z"/>
	<path class="st0" d="M123.5,94.2c0,3-0.7,5.4-2,7.1c-1.3,1.8-3.1,2.6-5.4,2.6c-2.7,0-4.7-1-6.1-3l-0.1,2.6h-2V76.3h2.1v10.9
		c1.4-2.1,3.4-3.1,6-3.1c2.3,0,4.1,0.9,5.4,2.6c1.3,1.7,2,4.2,2,7.2V94.2z M121.4,93.9c0-2.5-0.5-4.5-1.5-5.9
		c-1-1.4-2.4-2.1-4.2-2.1c-1.4,0-2.5,0.3-3.5,1s-1.7,1.7-2.2,2.9v8.7c1.1,2.4,3,3.6,5.7,3.6c1.8,0,3.1-0.7,4.1-2.1
		C120.9,98.7,121.4,96.6,121.4,93.9z"/>
	<path class="st0" d="M132.4,103.6V77.8h7.2c2.1,0,4,0.5,5.7,1.4c1.7,1,3,2.3,3.9,4.2c0.9,1.8,1.4,3.9,1.4,6.2v2.4
		c0,2.3-0.5,4.4-1.4,6.2c-0.9,1.8-2.3,3.2-4,4.1s-3.7,1.5-5.9,1.5H132.4z M134.6,79.6v22.2h4.9c2.7,0,4.9-0.9,6.6-2.7
		c1.6-1.8,2.5-4.3,2.5-7.3v-2.3c0-3-0.8-5.4-2.4-7.2c-1.6-1.8-3.8-2.7-6.4-2.7H134.6z"/>
	<path class="st0" d="M166,101.2c-1.3,1.9-3.3,2.8-6.1,2.8c-2.1,0-3.6-0.6-4.7-1.8c-1.1-1.2-1.6-3-1.6-5.3V84.4h2.1v12.2
		c0,3.7,1.5,5.5,4.4,5.5c3.1,0,5-1.3,5.8-3.8V84.4h2.1v19.2H166L166,101.2z"/>
	<path class="st0" d="M177.8,100.7l5.8-16.3h2.2l-7.2,19.2h-1.7l-7.2-19.2h2.2L177.8,100.7z"/>
	<path class="st0" d="M199.3,103.6c-0.2-0.6-0.3-1.5-0.4-2.7c-0.7,1-1.7,1.7-2.9,2.2c-1.2,0.5-2.4,0.8-3.7,0.8
		c-1.8,0-3.3-0.5-4.5-1.5c-1.1-1-1.7-2.3-1.7-3.9c0-1.9,0.8-3.4,2.3-4.4c1.6-1.1,3.7-1.6,6.5-1.6h3.9v-2.2c0-1.4-0.4-2.5-1.3-3.2
		c-0.8-0.8-2.1-1.2-3.7-1.2c-1.5,0-2.7,0.4-3.7,1.1c-1,0.8-1.5,1.7-1.5,2.7l-2.1,0c0-1.5,0.7-2.9,2.1-4s3.2-1.7,5.2-1.7
		c2.1,0,3.8,0.5,5.1,1.6c1.2,1.1,1.9,2.6,1.9,4.5v9.1c0,1.9,0.2,3.3,0.6,4.2v0.2H199.3z M192.6,102.1c1.4,0,2.7-0.3,3.8-1
		c1.1-0.7,1.9-1.6,2.4-2.8v-4.2h-3.8c-2.1,0-3.8,0.4-5,1.2c-1.2,0.8-1.8,1.8-1.8,3.1c0,1.1,0.4,2,1.2,2.7S191.4,102.1,192.6,102.1z"
		/>
	<path class="st0" d="M206.1,84.4l0.1,3.3c0.7-1.2,1.6-2.1,2.7-2.7c1.1-0.6,2.3-0.9,3.6-0.9c2.1,0,3.6,0.6,4.6,1.7
		c1,1.2,1.5,2.9,1.5,5.2v12.6h-2.1V91c0-1.7-0.4-3-1.1-3.8c-0.7-0.8-1.9-1.3-3.4-1.3c-1.3,0-2.5,0.4-3.5,1.2c-1,0.8-1.8,1.9-2.2,3.3
		v13.2h-2.1V84.4H206.1z"/>
	<path class="st0" d="M221.4,93.9c0-3,0.7-5.4,2-7.1c1.3-1.8,3.1-2.7,5.4-2.7c2.6,0,4.6,1,5.9,3.1V76.3h2.1v27.3h-2l-0.1-2.6
		c-1.4,1.9-3.4,2.9-6,2.9c-2.2,0-4-0.9-5.4-2.7c-1.4-1.8-2-4.2-2-7.2V93.9z M223.5,94.2c0,2.5,0.5,4.4,1.5,5.8
		c1,1.4,2.4,2.1,4.2,2.1c2.6,0,4.5-1.2,5.6-3.5v-9c-1.1-2.5-3-3.8-5.5-3.8c-1.8,0-3.2,0.7-4.2,2.1C224,89.4,223.5,91.5,223.5,94.2z"
		/>
	<path class="st0" d="M248.1,104c-1.6,0-3.1-0.4-4.4-1.2c-1.3-0.8-2.3-1.9-3.1-3.4c-0.7-1.4-1.1-3.1-1.1-4.8v-0.8
		c0-1.8,0.4-3.5,1.1-5c0.7-1.5,1.7-2.6,3-3.5c1.3-0.8,2.7-1.3,4.2-1.3c2.3,0,4.2,0.8,5.6,2.4c1.4,1.6,2.1,3.8,2.1,6.5v1.2h-13.7v0.4
		c0,2.2,0.6,4,1.9,5.4c1.2,1.5,2.8,2.2,4.7,2.2c1.1,0,2.1-0.2,3-0.6c0.9-0.4,1.7-1.1,2.4-2l1.3,1C253.3,102.9,251.1,104,248.1,104z
		 M247.7,85.9c-1.6,0-2.9,0.6-4,1.8c-1.1,1.2-1.8,2.7-2,4.7h11.5v-0.2c-0.1-1.8-0.6-3.4-1.6-4.5S249.3,85.9,247.7,85.9z"/>
	<path class="st0" d="M266.5,86.2c-0.5-0.1-0.9-0.1-1.4-0.1c-1.3,0-2.5,0.4-3.4,1.1c-0.9,0.7-1.6,1.8-2,3.2v13.2h-2.1V84.4h2.1
		l0,3.1c1.1-2.3,2.9-3.4,5.4-3.4c0.6,0,1.1,0.1,1.4,0.2L266.5,86.2z"/>
</g>
<g id="large">
	<g>
		<path class="st0" d="M49.1,45.8v21.3c0,8.7-3.2,13.8-9.2,15.6v-38c0-5.7-1.7-7.5-6.6-7.5h-3v0h0v7c0,0.5,0,1.1,0,1.6v21.3
			c0,0.6,0,1.1,0,1.6c0,0.8-0.1,1.5-0.2,2.2c-0.8,6.4-3.9,10.3-9,11.8c0,0,0,0-0.1,0c-0.1,0-0.1,0-0.2,0.1c-1.5,0.4-3.2,0.6-5.1,0.6
			h-5.4v-7.6h4.1c4.5,0,6.3-1.5,6.6-6.1c0-0.4,0-0.9,0-1.4V44.7c0-0.5,0-1,0-1.4V29.6h13.5C44,29.6,49.1,34.8,49.1,45.8z"/>
	</g>
	<g>
		<path class="st0" d="M71.2,44.1h2.2v18.2c0,2.5-0.7,4.4-2.1,5.9c-1.4,1.5-3.3,2.2-5.7,2.2c-2.5,0-4.4-0.7-5.8-2
			c-1.4-1.3-2-3.2-2-5.5h2.2c0,1.9,0.5,3.3,1.5,4.2c1,0.9,2.4,1.4,4.2,1.4c1.6,0,3-0.5,4-1.6c1-1.1,1.6-2.6,1.6-4.4V44.1z"/>
		<path class="st0" d="M89.4,70c-0.2-0.6-0.4-1.5-0.4-2.7c-0.7,1-1.7,1.7-2.9,2.2c-1.2,0.5-2.4,0.8-3.7,0.8c-1.8,0-3.3-0.5-4.5-1.5
			c-1.1-1-1.7-2.3-1.7-3.9c0-1.9,0.8-3.4,2.3-4.4c1.6-1.1,3.7-1.6,6.5-1.6H89v-2.2c0-1.4-0.4-2.5-1.3-3.2c-0.8-0.8-2.1-1.2-3.7-1.2
			c-1.5,0-2.7,0.4-3.7,1.1c-1,0.8-1.5,1.7-1.5,2.7l-2.1,0c0-1.5,0.7-2.9,2.1-4c1.4-1.1,3.2-1.7,5.2-1.7c2.1,0,3.8,0.5,5.1,1.6
			c1.2,1.1,1.9,2.6,1.9,4.5v9.1c0,1.9,0.2,3.3,0.6,4.2V70H89.4z M82.8,68.4c1.4,0,2.7-0.3,3.8-1c1.1-0.7,1.9-1.6,2.4-2.8v-4.2h-3.8
			c-2.1,0-3.8,0.4-5,1.2c-1.2,0.8-1.8,1.8-1.8,3.1c0,1.1,0.4,2,1.2,2.7C80.4,68.1,81.5,68.4,82.8,68.4z"/>
		<path class="st0" d="M102.1,68.5c1.5,0,2.7-0.4,3.7-1.3c1-0.8,1.5-1.9,1.6-3.2h2c-0.1,1.2-0.4,2.2-1.1,3.2c-0.7,1-1.6,1.7-2.7,2.3
			c-1.1,0.5-2.3,0.8-3.6,0.8c-2.5,0-4.5-0.9-6-2.6c-1.5-1.8-2.2-4.1-2.2-7.1V60c0-1.9,0.3-3.6,1-5c0.7-1.5,1.6-2.6,2.9-3.4
			c1.2-0.8,2.7-1.2,4.3-1.2c2.1,0,3.8,0.6,5.2,1.9c1.4,1.3,2.1,2.9,2.2,5h-2c-0.1-1.5-0.6-2.7-1.6-3.6c-1-0.9-2.2-1.4-3.7-1.4
			c-1.9,0-3.4,0.7-4.5,2.1c-1.1,1.4-1.6,3.3-1.6,5.8v0.6c0,2.5,0.5,4.4,1.6,5.7C98.7,67.8,100.2,68.5,102.1,68.5z"/>
		<path class="st0" d="M111.4,60.1c0-1.8,0.4-3.5,1.1-5c0.7-1.5,1.7-2.6,3-3.5c1.3-0.8,2.8-1.2,4.5-1.2c2.6,0,4.6,0.9,6.2,2.7
			c1.6,1.8,2.4,4.2,2.4,7.1v0.4c0,1.9-0.4,3.5-1.1,5c-0.7,1.5-1.7,2.6-3,3.4c-1.3,0.8-2.8,1.2-4.5,1.2c-2.5,0-4.6-0.9-6.2-2.7
			c-1.6-1.8-2.4-4.2-2.4-7.1V60.1z M113.6,60.7c0,2.3,0.6,4.2,1.8,5.7c1.2,1.5,2.8,2.2,4.7,2.2c1.9,0,3.5-0.7,4.7-2.2
			c1.2-1.5,1.8-3.4,1.8-5.8v-0.4c0-1.5-0.3-2.8-0.8-4c-0.5-1.2-1.3-2.2-2.3-2.8c-1-0.7-2.1-1-3.4-1c-1.9,0-3.4,0.7-4.6,2.2
			c-1.2,1.5-1.8,3.4-1.8,5.8V60.7z"/>
		<path class="st0" d="M146.7,60.5c0,3-0.7,5.4-2,7.1c-1.3,1.8-3.1,2.6-5.4,2.6c-2.7,0-4.7-1-6.1-3l-0.1,2.6h-2V42.7h2.1v10.9
			c1.4-2.1,3.4-3.1,6-3.1c2.3,0,4.1,0.9,5.4,2.6c1.3,1.7,2,4.2,2,7.2V60.5z M144.5,60.2c0-2.5-0.5-4.5-1.5-5.9
			c-1-1.4-2.4-2.1-4.2-2.1c-1.4,0-2.5,0.3-3.5,1c-0.9,0.7-1.7,1.7-2.2,2.9v8.7c1.1,2.4,3,3.6,5.7,3.6c1.8,0,3.1-0.7,4.1-2.1
			C144,65,144.5,62.9,144.5,60.2z"/>
		<path class="st0" d="M155.6,70V44.1h7.2c2.1,0,4,0.5,5.7,1.4c1.7,1,3,2.3,3.9,4.2c0.9,1.8,1.4,3.9,1.4,6.2v2.4
			c0,2.3-0.5,4.4-1.4,6.2c-0.9,1.8-2.3,3.2-4,4.1s-3.7,1.5-5.9,1.5H155.6z M157.8,45.9v22.2h4.9c2.7,0,4.9-0.9,6.6-2.7
			c1.6-1.8,2.5-4.3,2.5-7.3v-2.3c0-3-0.8-5.4-2.4-7.2c-1.6-1.8-3.8-2.7-6.4-2.7H157.8z"/>
		<path class="st0" d="M189.1,67.5c-1.3,1.9-3.3,2.8-6.1,2.8c-2.1,0-3.6-0.6-4.7-1.8c-1.1-1.2-1.6-3-1.6-5.3V50.7h2.1V63
			c0,3.7,1.5,5.5,4.4,5.5c3.1,0,5-1.3,5.8-3.8V50.7h2.1V70h-2.1L189.1,67.5z"/>
		<path class="st0" d="M200.9,67l5.8-16.3h2.2L201.8,70h-1.7l-7.2-19.2h2.2L200.9,67z"/>
		<path class="st0" d="M222.5,70c-0.2-0.6-0.3-1.5-0.4-2.7c-0.7,1-1.7,1.7-2.9,2.2c-1.2,0.5-2.4,0.8-3.7,0.8c-1.8,0-3.3-0.5-4.5-1.5
			c-1.1-1-1.7-2.3-1.7-3.9c0-1.9,0.8-3.4,2.3-4.4c1.6-1.1,3.7-1.6,6.5-1.6h3.9v-2.2c0-1.4-0.4-2.5-1.3-3.2c-0.8-0.8-2.1-1.2-3.7-1.2
			c-1.5,0-2.7,0.4-3.7,1.1c-1,0.8-1.5,1.7-1.5,2.7l-2.1,0c0-1.5,0.7-2.9,2.1-4c1.4-1.1,3.2-1.7,5.2-1.7c2.1,0,3.8,0.5,5.1,1.6
			c1.2,1.1,1.9,2.6,1.9,4.5v9.1c0,1.9,0.2,3.3,0.6,4.2V70H222.5z M215.8,68.4c1.4,0,2.7-0.3,3.8-1c1.1-0.7,1.9-1.6,2.4-2.8v-4.2
			h-3.8c-2.1,0-3.8,0.4-5,1.2c-1.2,0.8-1.8,1.8-1.8,3.1c0,1.1,0.4,2,1.2,2.7S214.5,68.4,215.8,68.4z"/>
		<path class="st0" d="M229.3,50.7l0.1,3.3c0.7-1.2,1.6-2.1,2.7-2.7c1.1-0.6,2.3-0.9,3.6-0.9c2.1,0,3.6,0.6,4.6,1.7
			c1,1.2,1.5,2.9,1.5,5.2V70h-2.1V57.3c0-1.7-0.4-3-1.1-3.8c-0.7-0.8-1.9-1.3-3.4-1.3c-1.3,0-2.5,0.4-3.5,1.2
			c-1,0.8-1.8,1.9-2.2,3.3V70h-2.1V50.7H229.3z"/>
		<path class="st0" d="M244.6,60.2c0-3,0.7-5.4,2-7.1c1.3-1.8,3.1-2.7,5.4-2.7c2.6,0,4.6,1,5.9,3.1V42.7h2.1V70h-2l-0.1-2.6
			c-1.4,1.9-3.4,2.9-6,2.9c-2.2,0-4-0.9-5.4-2.7c-1.4-1.8-2-4.2-2-7.2V60.2z M246.7,60.5c0,2.5,0.5,4.4,1.5,5.8
			c1,1.4,2.4,2.1,4.2,2.1c2.6,0,4.5-1.2,5.6-3.5v-9c-1.1-2.5-3-3.8-5.5-3.8c-1.8,0-3.2,0.7-4.2,2.1
			C247.2,55.7,246.7,57.8,246.7,60.5z"/>
		<path class="st0" d="M271.3,70.3c-1.6,0-3.1-0.4-4.4-1.2c-1.3-0.8-2.3-1.9-3.1-3.4c-0.7-1.4-1.1-3.1-1.1-4.8v-0.8
			c0-1.8,0.4-3.5,1.1-5c0.7-1.5,1.7-2.6,3-3.5c1.3-0.8,2.7-1.3,4.2-1.3c2.3,0,4.2,0.8,5.6,2.4c1.4,1.6,2.1,3.8,2.1,6.5v1.2h-13.7
			v0.4c0,2.2,0.6,4,1.9,5.4c1.2,1.5,2.8,2.2,4.7,2.2c1.1,0,2.1-0.2,3-0.6c0.9-0.4,1.7-1.1,2.4-2l1.3,1
			C276.5,69.2,274.2,70.3,271.3,70.3z M270.9,52.2c-1.6,0-2.9,0.6-4,1.8c-1.1,1.2-1.8,2.7-2,4.7h11.5v-0.2c-0.1-1.8-0.6-3.4-1.6-4.5
			C273.8,52.8,272.5,52.2,270.9,52.2z"/>
		<path class="st0" d="M289.7,52.5c-0.5-0.1-0.9-0.1-1.4-0.1c-1.3,0-2.5,0.4-3.4,1.1c-0.9,0.7-1.6,1.8-2,3.2V70h-2.1V50.7h2.1l0,3.1
			c1.1-2.3,2.9-3.4,5.4-3.4c0.6,0,1.1,0.1,1.4,0.2L289.7,52.5z"/>
	</g>
</g>
</svg>
